<svg id="Layer_1" data-name="Layer 1" xmlns="http://www.w3.org/2000/svg" viewBox="0 0 415.58 200.65"><defs><style>.cls-1{fill:#ceb280;}.cls-2{fill:#b41925;}.cls-3,.cls-4{fill:#633d3a;}.cls-4{opacity:0.15;}.cls-5{fill:#55bb70;}</style></defs><path class="cls-1" d="M163.34,295.37a65,65,0,0,0-65,65V431a65,65,0,0,0,65,65h88.35a10,10,0,0,0,8.2-4.26l132-188.52a5,5,0,0,0-4.09-7.87Z" transform="translate(-98.34 -295.37)"/><path class="cls-2" d="M504.83,308.66,379.17,488.15a5,5,0,0,0,4.09,7.87h30a10,10,0,0,0,8.19-4.26l89.75-128.2a15,15,0,0,0,2.71-8.6V311.53A5,5,0,0,0,504.83,308.66Z" transform="translate(-98.34 -295.37)"/><path class="cls-3" d="M431.11,299.64l-132,188.51a5,5,0,0,0,4.09,7.87h28.49a10,10,0,0,0,8.2-4.26l132-188.52a5,5,0,0,0-4.09-7.87H439.31A10,10,0,0,0,431.11,299.64Z" transform="translate(-98.34 -295.37)"/><path class="cls-4" d="M354.07,295.37,213.6,496h38.09a10,10,0,0,0,8.2-4.26l132-188.52a5,5,0,0,0-4.09-7.87Z" transform="translate(-98.34 -295.37)"/><path class="cls-5" d="M504.83,425.14l-44.12,63a5,5,0,0,0,4.1,7.87h39.11a10,10,0,0,0,10-10V428A5,5,0,0,0,504.83,425.14Z" transform="translate(-98.34 -295.37)"/></svg>